<svg width="960" height="540" viewBox="0 0 960 540" fill="none" xmlns="http://www.w3.org/2000/svg">
  <rect width="960" height="540" rx="28" fill="#F8FAFC"/>
  <circle cx="480" cy="102" r="40" fill="#0F172A"/>
  <circle cx="290" cy="240" r="34" fill="#2563EB"/>
  <circle cx="480" cy="240" r="34" fill="#2563EB"/>
  <circle cx="670" cy="240" r="34" fill="#059669"/>
  <circle cx="220" cy="390" r="28" fill="#E2E8F0"/>
  <circle cx="380" cy="390" r="28" fill="#DBEAFE"/>
  <circle cx="540" cy="390" r="28" fill="#DBEAFE"/>
  <circle cx="700" cy="390" r="28" fill="#D1FAE5"/>
  <path d="M448 126L318 218" stroke="#0F172A" stroke-width="10" stroke-linecap="round"/>
  <path d="M480 142V198" stroke="#0F172A" stroke-width="10" stroke-linecap="round"/>
  <path d="M512 126L642 218" stroke="#0F172A" stroke-width="10" stroke-linecap="round"/>
  <path d="M290 274L238 364" stroke="#2563EB" stroke-width="10" stroke-linecap="round"/>
  <path d="M290 274L352 364" stroke="#2563EB" stroke-width="10" stroke-linecap="round"/>
  <path d="M480 274L408 364" stroke="#2563EB" stroke-width="10" stroke-linecap="round"/>
  <path d="M480 274L552 364" stroke="#2563EB" stroke-width="10" stroke-linecap="round"/>
  <path d="M670 274L568 372" stroke="#059669" stroke-width="10" stroke-linecap="round"/>
  <path d="M670 274L682 356" stroke="#059669" stroke-width="10" stroke-linecap="round"/>
  <text x="480" y="110" text-anchor="middle" font-family="Arial, sans-serif" font-size="22" fill="white">MDD</text>
  <text x="290" y="248" text-anchor="middle" font-family="Arial, sans-serif" font-size="20" fill="white">x₂</text>
  <text x="480" y="248" text-anchor="middle" font-family="Arial, sans-serif" font-size="20" fill="white">x₂</text>
  <text x="670" y="248" text-anchor="middle" font-family="Arial, sans-serif" font-size="20" fill="white">x₂</text>
  <text x="220" y="397" text-anchor="middle" font-family="Arial, sans-serif" font-size="18" fill="#0F172A">0</text>
  <text x="380" y="397" text-anchor="middle" font-family="Arial, sans-serif" font-size="18" fill="#0F172A">1</text>
  <text x="540" y="397" text-anchor="middle" font-family="Arial, sans-serif" font-size="18" fill="#0F172A">2</text>
  <text x="700" y="397" text-anchor="middle" font-family="Arial, sans-serif" font-size="18" fill="#0F172A">3</text>
</svg>
