<svg width="960" height="540" viewBox="0 0 960 540" fill="none" xmlns="http://www.w3.org/2000/svg">
  <rect width="960" height="540" rx="28" fill="#F8FAFC"/>
  <rect x="180" y="98" width="116" height="72" rx="24" fill="#0F172A"/>
  <rect x="422" y="98" width="116" height="72" rx="24" fill="#2563EB"/>
  <rect x="664" y="98" width="116" height="72" rx="24" fill="#059669"/>
  <rect x="302" y="234" width="116" height="72" rx="24" fill="#2563EB"/>
  <rect x="542" y="234" width="116" height="72" rx="24" fill="#059669"/>
  <rect x="202" y="370" width="116" height="72" rx="24" fill="#DBEAFE"/>
  <rect x="422" y="370" width="116" height="72" rx="24" fill="#E2E8F0"/>
  <rect x="642" y="370" width="116" height="72" rx="24" fill="#D1FAE5"/>
  <path d="M238 170V234H360" stroke="#0F172A" stroke-width="10" stroke-linecap="round" stroke-linejoin="round"/>
  <path d="M480 170V234H360" stroke="#2563EB" stroke-width="10" stroke-linecap="round" stroke-linejoin="round"/>
  <path d="M480 170V234H600" stroke="#2563EB" stroke-width="10" stroke-linecap="round" stroke-linejoin="round"/>
  <path d="M722 170V234H600" stroke="#059669" stroke-width="10" stroke-linecap="round" stroke-linejoin="round"/>
  <path d="M360 306V370H260" stroke="#2563EB" stroke-width="10" stroke-linecap="round" stroke-linejoin="round"/>
  <path d="M360 306V370H480" stroke="#2563EB" stroke-width="10" stroke-linecap="round" stroke-linejoin="round"/>
  <path d="M600 306V370H480" stroke="#059669" stroke-width="10" stroke-linecap="round" stroke-linejoin="round"/>
  <path d="M600 306V370H700" stroke="#059669" stroke-width="10" stroke-linecap="round" stroke-linejoin="round"/>
  <text x="238" y="142" text-anchor="middle" font-family="Arial, sans-serif" font-size="24" fill="white">x₁</text>
  <text x="480" y="142" text-anchor="middle" font-family="Arial, sans-serif" font-size="24" fill="white">x₂</text>
  <text x="722" y="142" text-anchor="middle" font-family="Arial, sans-serif" font-size="24" fill="white">x₃</text>
  <text x="360" y="278" text-anchor="middle" font-family="Arial, sans-serif" font-size="24" fill="white">x₄</text>
  <text x="600" y="278" text-anchor="middle" font-family="Arial, sans-serif" font-size="24" fill="white">x₄</text>
  <text x="260" y="414" text-anchor="middle" font-family="Arial, sans-serif" font-size="22" fill="#0F172A">00</text>
  <text x="480" y="414" text-anchor="middle" font-family="Arial, sans-serif" font-size="22" fill="#0F172A">10</text>
  <text x="700" y="414" text-anchor="middle" font-family="Arial, sans-serif" font-size="22" fill="#0F172A">11</text>
</svg>
